<?xml version="1.0" standalone="no"?>
<!DOCTYPE svg PUBLIC "-//W3C//DTD SVG 20010904//EN"
 "http://www.w3.org/TR/2001/REC-SVG-20010904/DTD/svg10.dtd">
<svg version="1.0" xmlns="http://www.w3.org/2000/svg"
 width="1024.000000pt" height="1024.000000pt" viewBox="0 0 1024.000000 1024.000000"
 preserveAspectRatio="xMidYMid meet">

<g transform="translate(0.000000,1024.000000) scale(0.100000,-0.100000)"
fill="#ffffff" stroke="none">
<path d="M3055 7461 c-143 -82 -267 -164 -365 -239 -114 -89 -388 -363 -487
-487 -214 -269 -420 -629 -508 -890 -9 -27 -28 -81 -42 -120 -13 -38 -28 -90
-33 -115 -5 -25 -14 -67 -19 -95 -21 -106 -42 -231 -41 -242 5 -54 -7 -250
-17 -266 -3 -5 -2 -7 3 -4 6 3 10 -33 11 -91 1 -119 30 -348 50 -402 4 -8 7
-27 8 -42 7 -76 153 -418 199 -464 9 -8 16 -22 16 -30 0 -8 4 -14 10 -14 5 0
16 -12 24 -27 8 -16 27 -42 43 -58 15 -17 39 -44 53 -60 48 -56 170 -154 265
-212 178 -111 433 -184 700 -202 146 -10 230 -6 355 15 422 70 923 307 1475
697 161 114 213 152 417 310 48 37 91 67 97 67 5 0 83 -59 173 -130 428 -342
953 -660 1343 -813 182 -72 280 -101 445 -132 300 -57 657 -22 930 92 242 101
402 223 559 426 33 44 66 94 73 113 6 19 16 34 20 34 4 0 8 8 8 18 0 9 7 26
15 36 8 11 15 27 15 37 0 9 7 22 15 29 8 7 15 23 15 36 0 12 11 53 24 91 23
63 32 99 71 288 25 121 26 128 30 225 3 52 8 104 12 115 15 45 -4 293 -31 395
-8 30 -19 91 -26 135 -47 316 -178 641 -389 958 -171 257 -257 365 -430 537
-75 74 -175 166 -221 203 -133 107 -455 315 -467 303 -3 -2 9 -12 25 -20 145
-75 506 -406 624 -572 213 -300 324 -588 368 -964 15 -123 12 -362 -5 -492
-13 -103 -23 -147 -68 -303 -18 -66 -104 -257 -142 -318 -94 -152 -249 -310
-388 -395 -166 -103 -317 -149 -517 -159 -256 -12 -533 47 -890 189 -143 57
-549 248 -659 311 -92 52 -103 67 -75 104 21 27 45 50 309 282 72 62 157 139
190 170 151 143 539 469 735 617 58 44 156 113 218 153 61 41 112 75 112 77 0
23 -1234 -630 -1682 -889 -223 -130 -330 -187 -348 -187 -11 0 -169 87 -690
380 -367 206 -650 364 -790 439 -135 72 -507 261 -516 261 -3 0 27 -22 67 -48
258 -169 609 -459 1065 -878 77 -71 206 -189 287 -263 94 -85 147 -139 145
-150 -3 -18 -466 -253 -670 -340 -387 -166 -769 -249 -1013 -222 -144 16 -243
43 -350 95 -156 75 -315 211 -438 375 -129 173 -224 414 -264 675 -21 135 -23
428 -4 566 45 331 180 664 376 928 138 186 417 435 633 566 34 20 62 39 62 42
0 6 3 8 -105 -55z"/>
</g>
</svg>
